<svg id="Layer_1" data-name="Layer 1" xmlns="http://www.w3.org/2000/svg" viewBox="0 0 252 252"><defs><style>.cls-1{fill:#a280ba;}.cls-2{fill:#9e005d;}.cls-3{fill:#ceb7de;}</style></defs><path class="cls-1" d="M106,172C79.46,172,41,62,43,58c0,0,77,58,77,103C120,162,109,172,106,172Z"/><ellipse class="cls-2" cx="86.5" cy="131.5" rx="5.5" ry="26.5"/><path class="cls-3" d="M113.67,169.78C93.46,187,2.23,107.27,2,102.8c0,0,113,15.17,118.58,54.9C121,161,118.29,165.84,113.67,169.78Z"/><path class="cls-1" d="M147.51,172.62c26.53,0,65-110,63-114,0,0-77,58-77,103C133.51,162.62,144.51,172.62,147.51,172.62Z"/><ellipse class="cls-2" cx="163.5" cy="132.5" rx="5.5" ry="26.5"/><path class="cls-3" d="M139.84,170.4c20.21,17.2,111.43-62.51,111.71-67,0,0-112.94,15.16-118.58,54.89C132.51,161.62,135.21,166.46,139.84,170.4Z"/></svg>